<svg xmlns="http://www.w3.org/2000/svg" viewBox="0 0 62.4 62.4"><title>Asset 1</title><g id="Layer_2" data-name="Layer 2"><g id="Layer_1-2" data-name="Layer 1"><path d="M43.82,62.4H18.58A18.6,18.6,0,0,1,0,43.82V18.58A18.6,18.6,0,0,1,18.58,0H43.82A18.59,18.59,0,0,1,62.4,18.58V43.82A18.6,18.6,0,0,1,43.82,62.4ZM18.58,2A16.6,16.6,0,0,0,2,18.58V43.82A16.6,16.6,0,0,0,18.58,60.4H43.82A16.6,16.6,0,0,0,60.4,43.82V18.58A16.59,16.59,0,0,0,43.82,2Z"/><path d="M60.52,48.78A1,1,0,0,1,60,48.6L31.33,28.86,2.3,48.5a.88.88,0,0,1-.91.1A.87.87,0,0,1,1,47.8V25.65a2,2,0,0,1,.73-1.47L31.27,1.8,60.73,24.27a2,2,0,0,1,.72,1.48L61.3,47.9a.86.86,0,0,1-.43.8A.75.75,0,0,1,60.52,48.78ZM30.77,27.35l.78.45L60.3,47.61l.15-21.87a1,1,0,0,0-.33-.68l-28.85-22L2.3,25a1,1,0,0,0-.33.67V47.52L30.77,28Z"/><path d="M34.65,48.28V31H27.76V48.28H22.15v-38h5.61V26.41h6.89V10.26h5.61v38Z"/><path d="M41.25,49.28H33.65V32H28.76V49.28H21.15v-40h7.61V25.41h4.89V9.26h7.61Zm-5.61-2h3.61v-36H35.65V27.41H26.76V11.26H23.15v36h3.61V30h8.89Z"/></g></g></svg>