<svg xmlns="http://www.w3.org/2000/svg" viewBox="0 0 72 72"><defs><style>.cls-1{fill:#005377;}.cls-2{fill:#009cc0;}.cls-3{fill:#fff;}</style></defs><title>Asset 3</title><g id="Layer_2" data-name="Layer 2"><g id="Layer_1-2" data-name="Layer 1"><rect class="cls-1" width="72" height="72"/><path class="cls-2" d="M48.62,66.7H23.38A18.1,18.1,0,0,1,5.3,48.62V23.38A18.1,18.1,0,0,1,23.38,5.3H48.62A18.09,18.09,0,0,1,66.7,23.38V48.62A18.1,18.1,0,0,1,48.62,66.7ZM23.38,6.3A17.1,17.1,0,0,0,6.3,23.38V48.62A17.1,17.1,0,0,0,23.38,65.7H48.62A17.1,17.1,0,0,0,65.7,48.62V23.38A17.09,17.09,0,0,0,48.62,6.3Z"/><path class="cls-2" d="M5.72,52.58V29.74a1.54,1.54,0,0,1,.54-1.1L36.07,5.8,65.74,28.73a1.55,1.55,0,0,1,.54,1.11l-.15,22.84c0,.38-.25.51-.56.3l-29.5-20.6v.1L6.28,52.88C6,53.1,5.72,53,5.72,52.58Z"/><path class="cls-3" d="M39.45,53.08V35.82H32.56V53.08H26.95v-38h5.61V31.21h6.89V15.06h5.61v38Z"/><path class="cls-3" d="M46.05,54.08H38.45V36.82H33.56V54.08H25.94v-40h7.61V30.21h4.89V14.06h7.61Zm-5.61-2h3.61v-36H40.45V32.21H31.56V16.06H27.94v36h3.61V34.82h8.89Z"/></g></g></svg>